<?xml version="1.0" encoding="UTF-8" standalone="no"?>
<svg
   xmlns:dc="http://purl.org/dc/elements/1.1/"
   xmlns:cc="http://creativecommons.org/ns#"
   xmlns:rdf="http://www.w3.org/1999/02/22-rdf-syntax-ns#"
   xmlns:svg="http://www.w3.org/2000/svg"
   xmlns="http://www.w3.org/2000/svg"
   viewBox="0 0 1122.52 793.70001"
   height="793.70001"
   width="1122.52"
   xml:space="preserve"
   id="svg2"
   version="1.1"><metadata
     id="metadata8"><rdf:RDF><cc:Work
         rdf:about=""><dc:format>image/svg+xml</dc:format><dc:type
           rdf:resource="http://purl.org/dc/dcmitype/StillImage" /></cc:Work></rdf:RDF></metadata><defs
     id="defs6"><clipPath
       id="clipPath18"
       clipPathUnits="userSpaceOnUse"><path
         id="path16"
         d="M 0,595.275 H 841.89 V 0 H 0 Z" /></clipPath></defs><g
     transform="matrix(1.3333333,0,0,-1.3333333,0,793.7)"
     id="g10"><g
       id="g12"><g
         clip-path="url(#clipPath18)"
         id="g14"><g
           transform="translate(207.7373,442.6411)"
           id="g20"><path
             id="path22"
             style="fill:#231f20;fill-opacity:1;fill-rule:nonzero;stroke:none"
             d="m 0,0 c 0,0 7.353,6.822 16.192,9.132 -3.504,2.707 -7.061,0.637 -7.061,0.637 0,0 2.338,3.609 2.549,8.282 C 8.069,16.564 5.308,14.229 3.61,11.043 2.548,14.016 1.273,14.229 2.335,16.777 -1.248,13.591 -1.062,9.98 -0.213,6.795 0.424,4.671 0.637,2.335 0,0" /></g><g
           transform="translate(188.3726,370.8242)"
           id="g24"><path
             id="path26"
             style="fill:#231f20;fill-opacity:1;fill-rule:nonzero;stroke:none"
             d="M 0,0 C 3.822,0.213 5.216,3.504 6.49,6.053 3.783,6.411 1.234,5.495 1.234,5.495 c 0,0 3.783,5.176 2.415,10.683 -3.609,-1.698 -4.883,-4.035 -6.582,-7.432 -1.487,0.637 -1.301,3.585 -4.274,5.071 0,0 0.478,-7.247 -2.429,-15.489 C -7.087,0.452 -3.822,-0.212 0,0" /></g><g
           transform="translate(375.5005,467.063)"
           id="g28"><path
             id="path30"
             style="fill:#231f20;fill-opacity:1;fill-rule:nonzero;stroke:none"
             d="M 0,0 C 1.097,1.621 -0.424,4.247 -2.973,7.432 -4.034,4.459 -5.52,3.184 -4.671,1.061 c -2.549,3.186 -3.61,4.674 -9.557,6.796 1.062,-3.185 1.063,-5.309 2.549,-7.857 -2.337,0.85 -4.115,-0.08 -5.469,-1.672 0,0 10.034,-3.425 15.131,-8.043 C -2.788,-4.698 -1.778,-2.628 0,0" /></g><g
           transform="translate(634.3647,449.436)"
           id="g32"><path
             id="path34"
             style="fill:#231f20;fill-opacity:1;fill-rule:nonzero;stroke:none"
             d="m 0,0 c 0.848,3.186 1.035,6.796 -2.549,9.982 1.061,-2.548 -0.215,-2.761 -1.275,-5.733 -1.699,3.185 -4.459,5.52 -8.072,7.007 0.214,-4.673 2.55,-8.282 2.55,-8.282 0,0 -3.556,2.07 -7.06,-0.637 8.84,-2.31 16.191,-9.132 16.191,-9.132 C -0.852,-4.459 -0.639,-2.124 0,0" /></g><g
           transform="translate(647.0269,376.877)"
           id="g36"><path
             id="path38"
             style="fill:#231f20;fill-opacity:1;fill-rule:nonzero;stroke:none"
             d="m 0,0 c 1.273,-2.549 2.666,-5.84 6.488,-6.053 3.825,-0.212 7.088,0.452 9.637,-1.672 C 13.219,0.517 13.695,7.764 13.695,7.764 10.723,6.278 10.908,3.331 9.42,2.693 7.723,6.09 6.449,8.427 2.838,10.125 1.473,4.619 5.254,-0.558 5.254,-0.558 5.254,-0.558 2.707,0.358 0,0" /></g><g
           transform="translate(468.4058,457.3477)"
           id="g40"><path
             id="path42"
             style="fill:#231f20;fill-opacity:1;fill-rule:nonzero;stroke:none"
             d="m 0,0 c 5.096,4.619 15.131,8.043 15.131,8.043 -1.356,1.593 -3.135,2.522 -5.471,1.672 1.486,2.549 1.488,4.673 2.549,7.858 C 6.262,15.45 5.201,13.962 2.652,10.776 3.502,12.899 2.016,14.175 0.955,17.147 -1.594,13.962 -3.117,11.336 -2.018,9.715 -0.238,7.087 0.768,5.017 0,0" /></g><g
           transform="translate(683.6187,415.8179)"
           id="g44"><path
             id="path46"
             style="fill:#231f20;fill-opacity:1;fill-rule:nonzero;stroke:none"
             d="m 0,0 c -2.668,-5.017 -12.941,-7.897 -17.719,-8.959 -0.836,12.941 7.725,16.524 9.764,16.564 3.824,-0.105 2.06,-5.136 2.06,-5.136 0.743,1.274 2.932,3.544 4.739,3.119 C 0.648,5.164 1.537,2.602 0,0 m -249.535,33.885 c -1.012,0 -1.832,0.82 -1.832,1.831 0,1.012 0.82,1.832 1.832,1.832 1.01,0 1.832,-0.82 1.832,-1.832 0,-1.011 -0.822,-1.831 -1.832,-1.831 m -2.842,10.246 V 47.9 h -5.521 c 0,0 -0.104,-1.963 0,-4.406 -1.487,1.434 -2.547,2.601 -2.389,6.796 0.318,3.185 2.389,4.937 2.389,4.937 V 50.29 h 5.416 c -0.159,4.3 6.531,1.911 7.431,6.689 -0.797,6.689 -5.519,5.255 -7.113,3.663 1.752,-3.08 -2.443,-4.513 -3.662,-3.663 -3.401,2.708 0.264,6.265 4.299,6.211 6.211,0 8.283,-3.663 8.759,-6.689 1.434,-10.299 -9.609,-12.37 -9.609,-12.37 m -15.074,-0.637 c 0.104,2.443 0,4.406 0,4.406 h -5.522 v -3.769 c 0,0 -11.042,2.071 -9.609,12.37 0.478,3.026 2.548,6.689 8.76,6.689 4.034,0.054 7.697,-3.503 4.301,-6.211 -1.223,-0.85 -5.416,0.583 -3.664,3.663 -1.593,1.592 -6.318,3.026 -7.115,-3.663 0.901,-4.778 7.592,-2.389 7.433,-6.689 h 5.416 v 4.937 c 0,0 2.071,-1.752 2.389,-4.937 0.159,-4.195 -0.903,-5.362 -2.389,-6.796 m -8.362,-9.609 c -1.01,0 -1.832,0.82 -1.832,1.831 0,1.012 0.822,1.832 1.832,1.832 1.011,0 1.832,-0.82 1.832,-1.832 0,-1.011 -0.821,-1.831 -1.832,-1.831 M -507.629,-8.959 c -4.778,1.062 -15.051,3.942 -17.719,8.959 -1.54,2.602 -0.651,5.164 1.155,5.588 1.805,0.425 3.995,-1.845 4.738,-3.119 0,0 -1.764,5.031 2.058,5.136 2.043,-0.04 10.604,-3.623 9.768,-16.564 M 9.516,2.031 c 0,3.344 -0.637,7.963 -11.547,7.963 -1.196,-0.239 -2.469,1.434 -0.559,2.548 5.336,3.266 4.301,7.486 8.123,7.964 -3.98,1.433 -7.406,4.619 -14.812,-0.956 -1.512,3.106 -4.539,4.762 -7.405,4.938 -3.902,0.239 -12.185,-4.301 -7.884,-10.83 -4.141,0.159 -14.174,1.035 -13.061,12.025 0.399,3.185 4.539,6.37 9.637,3.025 1.592,5.495 -2.867,8.043 -8.442,7.406 1.036,3.743 -0.955,6.928 -3.584,7.645 1.116,-4.22 -3.371,-6.157 -5.654,-8.281 -3.662,-4.062 -2.547,-9.478 -2.098,-12.477 -2.548,1.062 -10.617,9.133 -19.324,11.256 -8.361,1.778 -16.562,1.697 -23.57,-6.16 -4.037,-4.034 -11.07,-7.83 -11.895,-1.698 -0.423,6.583 0.666,11.786 -3.078,14.175 -3.98,2.071 -6.847,-0.583 -6.847,-3.345 0,-2.124 1.752,-4.459 5.466,-4.035 0.637,-2.76 -0.211,-8.706 -6.371,-11.255 -4.67,-1.592 -13.031,-2.018 -13.67,4.779 0,2.973 1.832,4.618 4.539,5.813 -2.546,2.947 -7.22,1.299 -8.494,-0.824 -0.638,4.248 -2.017,6.717 -4.564,8.628 -0.797,-3.265 -5.654,-8.361 -0.16,-12.901 0.927,-2.044 2.283,-6.424 -0.479,-10.034 -3.9,-0.239 -10.67,3.185 -11.705,9.477 -0.478,2.468 1.514,7.008 5.863,6.954 -1.88,3.319 -5.943,2.763 -7.216,2.337 -0.43,4.671 -0.955,7.671 -4.461,13.246 -3.981,-5.256 -3.823,-8.787 -3.184,-17.068 -0.215,-1.912 -1.355,-2.045 -2.127,0.636 -0.82,3.292 -2.121,5.521 -3.607,6.159 -0.637,-2.337 -2.071,-2.867 -1.703,-4.673 -2.547,-0.211 -6.58,0.293 -11.039,6.663 -4.459,5.31 -13.803,12.238 -29.942,3.956 -8.496,-4.885 -13.221,-7.22 -13.221,-7.22 0,0 3.504,7.167 0.479,12.423 -1.912,3.397 -6.053,6.105 -6.053,10.352 -1.701,-0.85 -4.142,-3.451 -3.931,-8.123 -4.112,2.23 -9.368,-1.035 -8.969,-6.53 2.758,1.911 7.351,3.77 10.113,-2.389 0.637,-2.124 0.238,-12.423 -13.672,-12.954 -1.617,0.053 -1.697,1.911 -1.697,1.911 0,0 3.742,1.513 3.105,4.911 -0.398,3.265 -2.945,3.823 -6.291,3.584 0.637,1.274 8.705,8.494 7.008,16.777 -0.797,4.007 -3.584,8.069 -8.84,7.591 0,1.274 -1.566,4.725 -5.175,3.026 0,0 -1.489,-1.273 -3.186,-3.61 -0.846,1.486 -2.469,3.61 0.16,4.247 2.389,-0.159 3.662,2.15 2.707,3.743 -1.275,1.911 -4.818,1.154 -7.113,-2.256 1.021,4.088 0.209,8.043 -2.762,10.379 -2.971,-2.336 -3.78,-6.291 -2.762,-10.379 -2.292,3.41 -5.836,4.167 -7.109,2.256 -0.956,-1.593 0.318,-3.902 2.707,-3.743 2.628,-0.637 1.006,-2.761 0.157,-4.247 -1.697,2.337 -3.186,3.61 -3.186,3.61 -3.608,1.699 -5.173,-1.752 -5.173,-3.026 -5.256,0.478 -8.044,-3.584 -8.84,-7.591 -1.7,-8.283 6.371,-15.503 7.008,-16.777 -3.345,0.239 -5.893,-0.319 -6.292,-3.584 -0.636,-3.398 3.106,-4.911 3.106,-4.911 0,0 -0.079,-1.858 -1.697,-1.911 -13.911,0.531 -14.309,10.83 -13.672,12.954 2.76,6.159 7.354,4.3 10.114,2.389 0.398,5.495 -4.858,8.76 -8.972,6.53 0.213,4.672 -2.23,7.273 -3.929,8.123 0,-4.247 -4.141,-6.955 -6.053,-10.352 -3.025,-5.256 0.478,-12.423 0.478,-12.423 0,0 -4.724,2.335 -13.219,7.22 -16.14,8.282 -25.483,1.354 -29.943,-3.956 -4.459,-6.37 -8.493,-6.874 -11.042,-6.663 0.371,1.806 -1.062,2.336 -1.699,4.673 -1.487,-0.638 -2.787,-2.867 -3.61,-6.159 -0.77,-2.681 -1.911,-2.548 -2.124,-0.636 0.637,8.281 0.796,11.812 -3.185,17.068 -3.504,-5.575 -4.034,-8.575 -4.46,-13.246 -1.274,0.426 -5.335,0.982 -7.219,-2.337 4.353,0.054 6.343,-4.486 5.865,-6.954 -1.035,-6.292 -7.804,-9.716 -11.706,-9.477 -2.761,3.61 -1.407,7.99 -0.478,10.034 5.495,4.54 0.637,9.636 -0.159,12.901 -2.548,-1.911 -3.928,-4.38 -4.565,-8.628 -1.274,2.123 -5.947,3.771 -8.495,0.824 2.707,-1.195 4.539,-2.84 4.539,-5.813 -0.637,-6.797 -8.999,-6.371 -13.671,-4.779 -6.159,2.549 -7.008,8.495 -6.371,11.255 3.717,-0.424 5.469,1.911 5.469,4.035 0,2.762 -2.867,5.416 -6.848,3.345 -3.744,-2.389 -2.655,-7.592 -3.08,-14.175 -0.823,-6.132 -7.857,-2.336 -11.892,1.698 -7.008,7.857 -15.211,7.938 -23.572,6.16 -8.706,-2.123 -16.776,-10.194 -19.325,-11.256 0.452,2.999 1.566,8.415 -2.096,12.477 -2.284,2.124 -6.769,4.061 -5.655,8.281 -2.627,-0.717 -4.619,-3.902 -3.583,-7.645 -5.575,0.637 -10.034,-1.911 -8.441,-7.406 5.096,3.345 9.237,0.16 9.635,-3.025 1.115,-10.99 -8.919,-11.866 -13.06,-12.025 4.301,6.529 -3.981,11.069 -7.884,10.83 -2.866,-0.176 -5.893,-1.832 -7.406,-4.938 -7.406,5.575 -10.83,2.389 -14.811,0.956 3.822,-0.478 2.787,-4.698 8.122,-7.964 1.911,-1.114 0.637,-2.787 -0.557,-2.548 -10.91,0 -11.547,-4.619 -11.547,-7.963 0.318,-6.849 8.6,-9.875 15.13,-10.83 -2.19,-1.633 -3.862,-2.907 -6.132,-4.5 -4.021,-3.385 -3.464,-8.8 -1.035,-11.746 4.5,-4.738 8.839,-2.509 10.99,-0.477 -2.548,0.318 -5.415,1.154 -5.734,3.025 -0.996,3.982 1.871,5.415 4.141,5.415 3.504,0.16 5.574,-2.07 8.123,-5.574 2.19,-3.185 1.752,-9.875 0.955,-12.901 -1.752,3.186 -3.343,5.125 -8.122,5.415 -3.942,0.24 -6.491,-2.468 -6.491,-5.176 0,-4.459 3.066,-6.012 5.296,-6.649 -0.478,1.035 -0.398,3.225 1.035,4.18 2.031,1.275 5.097,0 5.734,-4.141 0.358,-5.534 -1.832,-12.383 -3.424,-18.116 -1.115,-5.894 -0.358,-12.503 2.627,-16.923 2.23,-2.707 4.46,-5.256 9.716,-5.096 5.296,0.438 5.534,5.494 3.345,7.326 -3.823,2.708 -6.212,-1.593 -6.212,-1.593 -3.341,1.328 -4.515,5.681 -4.728,9.079 0.547,7.883 5.286,8.999 9.132,9.131 7.644,0.213 8.282,-7.007 7.432,-11.255 6.241,3.318 4.672,10.619 2.124,14.441 3.186,0.425 5.83,-0.054 8.059,4.844 -3.185,-1.063 -6.41,0.04 -8.521,1.035 -2.229,1.354 -4.127,1.805 -6.888,1.593 -5.097,-0.212 -5.817,-1.527 -9.64,-3.863 2.336,8.707 3.823,14.865 4.46,25.908 1.486,15.927 0.163,24.342 -3.398,33.341 -1.679,4.241 -4.005,6.052 -3.128,10.432 0.876,2.946 4.698,1.593 3.902,-0.398 -1.832,-4.699 2.412,-7.062 4.324,-7.699 12.479,-2.813 18.899,3.823 22.933,6.795 5.308,3.397 8.708,5.31 11.68,5.31 5.499,-0.663 3.823,-6.371 1.911,-8.495 6.295,-1.088 8.496,2.337 8.496,5.522 -0.13,4.46 -4.673,6.158 -8.283,7.432 8.92,5.734 14.865,2.761 17.839,1.487 3.931,-2.469 2.737,-6.769 0.636,-8.282 -2.335,-1.698 -5.946,1.062 -7.433,2.549 -1.487,-6.159 2.925,-9.716 8.071,-8.919 5.365,1.274 6.987,5.999 6.878,11.228 2.628,-1.115 3.902,-3.106 6.052,-5.415 1.911,-2.336 4.699,-4.061 7.247,-4.061 4.672,-0.213 6.792,2.07 8.065,4.405 7.857,-5.946 15.503,-6.583 20.812,-6.583 14.866,-1.7 22.298,6.796 26.121,11.256 5.365,-2.389 8.471,-0.797 8.471,-0.797 l -2.309,3.186 c 0,0 2.866,0.159 5.813,0.318 8.601,1.354 9.636,6.504 11.547,10.114 1.672,-8.84 6.052,-10.91 10.243,-10.486 6.584,1.912 6.584,7.008 5.521,9.345 -0.426,-1.911 -2.76,-3.822 -4.671,-3.611 -1.911,0.212 -4.085,1.009 -3.823,4.672 0.534,4.46 6.507,7.565 11.255,7.221 5.734,-0.637 9.769,-3.823 9.769,-3.823 -7.008,1.063 -9.501,-4.114 -9.102,-6.902 0.8,-5.52 7.008,-6.211 11.437,-3.928 -2.761,0.637 -3.398,1.486 -4.246,3.823 -0.581,4.565 4.675,5.043 9.13,2.335 8.047,-6.132 14.975,-9.158 22.085,-9.343 7.304,-0.133 11.525,3.928 14.71,3.928 7.008,0.85 12.261,-6.902 12.261,-6.902 0,0 5.256,7.752 12.264,6.902 3.185,0 7.406,-4.061 14.707,-3.928 7.113,0.185 14.041,3.211 22.086,9.343 4.459,2.708 9.713,2.23 9.131,-2.335 -0.848,-2.337 -1.485,-3.186 -4.244,-3.823 4.429,-2.283 10.634,-1.592 11.437,3.928 0.397,2.788 -2.096,7.965 -9.103,6.902 0,0 4.035,3.186 9.769,3.823 4.748,0.344 10.721,-2.761 11.254,-7.221 0.264,-3.663 -1.912,-4.46 -3.822,-4.672 -1.912,-0.211 -4.246,1.7 -4.672,3.611 -1.063,-2.337 -1.063,-7.433 5.521,-9.345 4.192,-0.424 8.573,1.646 10.244,10.486 1.913,-3.61 2.946,-8.76 11.547,-10.114 2.948,-0.159 5.815,-0.318 5.815,-0.318 l -2.311,-3.186 c 0,0 3.106,-1.592 8.471,0.797 3.822,-4.46 11.254,-12.956 26.121,-11.256 5.309,0 12.955,0.637 20.809,6.583 1.275,-2.335 3.394,-4.618 8.068,-4.405 2.549,0 5.336,1.725 7.246,4.061 2.15,2.309 3.426,4.3 6.053,5.415 -0.11,-5.229 1.514,-9.954 6.879,-11.228 5.146,-0.797 9.556,2.76 8.068,8.919 -1.486,-1.487 -5.098,-4.247 -7.432,-2.549 -2.099,1.513 -3.294,5.813 0.637,8.282 2.973,1.274 8.92,4.247 17.838,-1.487 -3.609,-1.274 -8.152,-2.972 -8.281,-7.432 0,-3.185 2.199,-6.61 8.494,-5.522 -1.912,2.124 -3.586,7.832 1.91,8.495 2.975,0 6.373,-1.913 11.68,-5.31 4.037,-2.972 10.457,-9.608 22.933,-6.795 1.913,0.637 6.159,3 4.327,7.699 -0.797,1.991 3.025,3.344 3.902,0.398 0.875,-4.38 -1.451,-6.191 -3.131,-10.432 -3.559,-8.999 -4.883,-17.414 -3.396,-33.341 0.636,-11.043 2.123,-17.201 4.459,-25.908 -3.823,2.336 -4.541,3.651 -9.639,3.863 -2.762,0.212 -4.658,-0.239 -6.889,-1.593 -2.109,-0.995 -5.334,-2.098 -8.521,-1.035 2.23,-4.898 4.873,-4.419 8.058,-4.844 -2.547,-3.822 -4.115,-11.123 2.125,-14.441 -0.849,4.248 -0.213,11.468 7.432,11.255 3.848,-0.132 8.586,-1.248 9.133,-9.131 -0.213,-3.398 -1.389,-7.751 -4.729,-9.079 0,0 -2.388,4.301 -6.211,1.593 -2.189,-1.832 -1.951,-6.888 3.346,-7.326 5.254,-0.16 7.484,2.389 9.715,5.096 2.986,4.42 3.742,11.029 2.627,16.923 -1.592,5.733 -3.781,12.582 -3.424,18.116 0.637,4.141 3.703,5.416 5.734,4.141 1.434,-0.955 1.512,-3.145 1.036,-4.18 2.228,0.637 5.294,2.19 5.294,6.649 0,2.708 -2.548,5.416 -6.49,5.176 -4.779,-0.29 -6.371,-2.229 -8.123,-5.415 -0.795,3.026 -1.234,9.716 0.957,12.901 2.547,3.504 4.617,5.734 8.123,5.574 2.27,0 5.135,-1.433 4.141,-5.415 -0.318,-1.871 -3.186,-2.707 -5.735,-3.025 2.151,-2.032 6.491,-4.261 10.991,0.477 2.427,2.946 2.986,8.361 -1.035,11.746 -2.27,1.593 -3.944,2.867 -6.133,4.5 6.531,0.955 14.812,3.981 15.131,10.83" /></g><g
           transform="translate(169.8125,289.8545)"
           id="g48"><path
             id="path50"
             style="fill:none;stroke:#231f20;stroke-width:2.5480001;stroke-linecap:round;stroke-linejoin:miter;stroke-miterlimit:10;stroke-dasharray:none;stroke-opacity:1"
             d="M 0,0 C -0.007,-0.002 -0.014,-0.004 -0.021,-0.006" /></g><g
           transform="translate(166.0586,289.1084)"
           id="g52"><path
             id="path54"
             style="fill:none;stroke:#231f20;stroke-width:2.5480001;stroke-linecap:round;stroke-linejoin:miter;stroke-miterlimit:10;stroke-dasharray:0.051, 3.809;stroke-dashoffset:0;stroke-opacity:1"
             d="m 0,0 c -0.726,-0.08 -1.484,-0.127 -2.266,-0.127 -2.314,0 -4.522,0.414 -6.56,1.231 L -9.011,1.18 -9.189,1.273 c -6.791,3.641 -10.066,10.17 -8.985,17.913 l 0.028,0.2 0.05,0.197 c 2.16,8.418 8.546,13.444 17.079,13.444 l 0.519,-0.006 c 4.179,0 14.69,-1.715 20.411,-17.571 l 0.078,-0.219 0.05,-0.228 c 1.864,-8.437 3.977,-17.997 0.246,-39.927 -0.858,-5.838 -2.79,-18.983 -0.166,-35.295" /></g><g
           transform="translate(186.5005,227.0098)"
           id="g56"><path
             id="path58"
             style="fill:none;stroke:#231f20;stroke-width:2.5480001;stroke-linecap:round;stroke-linejoin:miter;stroke-miterlimit:10;stroke-dasharray:none;stroke-opacity:1"
             d="M 0,0 0.003,-0.018 H 0.028" /></g><g
           transform="translate(190.353,226.9922)"
           id="g60"><path
             id="path62"
             style="fill:none;stroke:#231f20;stroke-width:2.5480001;stroke-linecap:round;stroke-linejoin:miter;stroke-miterlimit:10;stroke-dasharray:0.051, 3.824;stroke-dashoffset:0;stroke-opacity:1"
             d="M 0,0 H 463.1" /></g><g
           transform="translate(655.3647,226.9922)"
           id="g64"><path
             id="path66"
             style="fill:none;stroke:#231f20;stroke-width:2.5480001;stroke-linecap:round;stroke-linejoin:miter;stroke-miterlimit:10;stroke-dasharray:none;stroke-opacity:1"
             d="M 0,0 H 0.025 L 0.028,0.018" /></g><g
           transform="translate(655.9985,230.7705)"
           id="g68"><path
             id="path70"
             style="fill:none;stroke:#231f20;stroke-width:2.5480001;stroke-linecap:round;stroke-linejoin:miter;stroke-miterlimit:10;stroke-dasharray:0.051, 3.809;stroke-dashoffset:0;stroke-opacity:1"
             d="m 0,0 c 2.19,15.444 0.369,27.813 -0.466,33.494 -3.719,21.85 -1.603,31.412 0.26,39.849 l 0.051,0.226 0.08,0.219 C 5.642,89.647 16.159,91.36 20.415,91.36 l 0.436,0.005 c 8.533,0 14.918,-5.026 17.078,-13.444 l 0.05,-0.197 0.028,-0.201 C 39.089,69.781 35.813,63.252 29.022,59.611 l -0.175,-0.093 -0.188,-0.076 c -2.037,-0.817 -4.246,-1.231 -6.558,-1.231 -1.485,0 -2.883,0.168 -4.144,0.418" /></g><g
           transform="translate(672.0991,289.8486)"
           id="g72"><path
             id="path74"
             style="fill:none;stroke:#231f20;stroke-width:2.5480001;stroke-linecap:round;stroke-linejoin:miter;stroke-miterlimit:10;stroke-dasharray:none;stroke-opacity:1"
             d="M 0,0 C -0.008,0.002 -0.015,0.004 -0.021,0.006" /></g><g
           transform="translate(690.4292,307.7935)"
           id="g76"><path
             id="path78"
             style="fill:#231f20;fill-opacity:1;fill-rule:nonzero;stroke:none"
             d="m 0,0 c -1.062,4.141 -4.459,10.938 -14.016,10.725 -4.566,0 -12.423,-2.232 -17.093,-15.185 -2.02,-9.131 -3.719,-17.944 -0.215,-38.542 1.062,-7.221 3.185,-22.721 -0.74,-41.411 h -474.837 c -3.928,18.69 -1.805,34.19 -0.744,41.411 3.504,20.598 1.806,29.411 -0.211,38.542 -4.672,12.953 -12.529,15.185 -17.096,15.185 -9.556,0.213 -12.953,-6.584 -14.015,-10.725 -1.035,-7.406 2.707,-11.865 7.115,-14.228 6.821,-2.734 13.803,1.168 13.803,1.168 4.194,-13.538 -0.85,-35.357 -2.762,-42.685 -5.255,-14.811 -7.485,-28.349 -7.326,-38.223 0,-14.813 7.486,-23.254 13.22,-28.51 6.848,-7.485 9.078,-12.423 11.467,-19.272 3.982,-18.793 -6.451,-26.12 -9.238,-27.553 -11.865,-5.097 -12.742,-7.645 -13.219,-10.989 0.717,-9.557 9.556,-10.671 16.245,-10.671 17.201,12.262 19.431,34.481 19.431,43.48 0,7.167 -3.026,15.768 -5.574,21.501 -6.53,12.264 -5.575,17.679 -5.734,21.819 9.874,6.69 18.953,5.839 21.183,5.628 1.38,-1.063 4.247,-3.823 8.387,-3.823 4.672,0.318 5.628,2.23 8.071,3.293 2.442,1.273 7.113,0.53 7.113,0.53 7.964,-1.063 10.407,-2.335 16.035,-3.505 7.115,-1.062 10.511,-1.699 17.519,-1.699 7.008,0 10.405,0 16.775,1.699 10.406,3.08 18.237,4.727 23.043,3.505 1.168,-2.016 3.715,-3.715 7.432,-3.715 4.485,0 6.371,2.122 8.495,3.715 5.733,1.486 7.963,1.169 10.723,0.107 0.424,-1.7 3.902,-7.486 10.406,-7.434 8.706,-0.212 10.617,5.523 12.741,7.434 3.186,0.955 7.432,0.85 9.238,0.318 1.381,-1.807 3.928,-4.14 7.538,-4.14 3.185,0 6.052,2.229 6.902,4.14 6.584,0.318 11.574,-0.744 17.308,-2.125 14.857,-3.409 23.146,-3.504 23.146,-3.504 0,0 8.289,0.095 23.146,3.504 5.734,1.381 10.727,2.443 17.309,2.125 0.849,-1.911 3.715,-4.14 6.9,-4.14 3.611,0 6.158,2.333 7.541,4.14 1.805,0.532 6.053,0.637 9.238,-0.318 2.121,-1.911 4.034,-7.646 12.741,-7.434 6.504,-0.052 9.98,5.734 10.404,7.434 2.76,1.062 4.99,1.379 10.725,-0.107 2.125,-1.593 4.009,-3.715 8.496,-3.715 3.714,0 6.261,1.699 7.429,3.715 4.807,1.222 12.639,-0.425 23.043,-3.505 6.371,-1.699 9.768,-1.699 16.776,-1.699 7.007,0 10.404,0.637 17.519,1.699 5.629,1.17 8.071,2.442 16.033,3.505 0,0 4.672,0.743 7.116,-0.53 2.441,-1.063 3.4,-2.975 8.068,-3.293 4.141,0 7.008,2.76 8.389,3.823 2.23,0.211 11.308,1.062 21.183,-5.628 -0.16,-4.14 0.795,-9.555 -5.734,-21.819 -2.549,-5.733 -5.574,-14.334 -5.574,-21.501 0,-8.999 2.228,-31.218 19.429,-43.48 6.692,0 15.53,1.114 16.246,10.671 -0.478,3.344 -1.353,5.892 -13.218,10.989 -2.787,1.433 -13.219,8.76 -9.239,27.553 2.389,6.849 4.62,11.787 11.469,19.272 5.733,5.256 13.219,13.697 13.219,28.51 0.158,9.874 -2.07,23.412 -7.326,38.223 -1.912,7.328 -6.957,29.147 -2.76,42.685 0,0 6.98,-3.902 13.801,-1.168 C -2.707,-11.865 1.035,-7.406 0,0" /></g><g
           transform="translate(610.0581,254.2939)"
           id="g80"><path
             id="path82"
             style="fill:#231f20;fill-opacity:1;fill-rule:nonzero;stroke:none"
             d="m 0,0 c -40.084,2.504 -85.715,3.219 -98.416,3.219 h -181.392 c -12.704,0 -58.335,-0.715 -98.417,-3.219 -40.082,-2.503 -42.767,-8.949 -42.767,-8.949 V -23.622 H 42.766 v 14.673 c 0,0 -2.682,6.446 -42.766,8.949" /></g><g
           transform="translate(251.2915,352.0132)"
           id="g84"><path
             id="path86"
             style="fill:#231f20;fill-opacity:1;fill-rule:nonzero;stroke:none"
             d="m 0,0 c 0.663,-0.238 2.041,-0.571 3.724,-0.571 3.316,0 7.397,1.667 7.397,7.716 0,5.145 -3.52,7.336 -7.703,7.336 -1.428,0 -2.5,-0.239 -2.857,-0.572 C 0.153,13.575 0,13.004 0,11.67 Z m 4.132,16.005 c 3.622,0 6.53,-0.572 8.571,-2 1.989,-1.381 3.316,-3.573 3.316,-6.717 0,-6.144 -4.999,-9.145 -9.948,-9.764 -0.765,-0.048 -1.735,-0.048 -2.296,0 L 0,-1.571 V -9.05 c 0,-4.049 0.459,-4.286 5.05,-4.573 v -1.334 H -8.775 v 1.334 c 4.082,0.287 4.49,0.667 4.49,4.621 v 19.053 c 0,4.191 -0.408,4.383 -4.184,4.62 v 1.334 z" /></g><g
           transform="translate(281.376,362.54)"
           id="g88"><path
             id="path90"
             style="fill:#231f20;fill-opacity:1;fill-rule:nonzero;stroke:none"
             d="m 0,0 h -0.102 c -1.632,-4.096 -3.265,-8.24 -4.795,-12.146 h 9.386 z m 5,-25.483 v 1.334 c 3.213,0.38 3.672,0.761 3.009,2.619 -0.663,1.858 -1.683,4.431 -2.805,7.336 H -5.663 c -0.816,-2.143 -1.582,-4.144 -2.245,-6.145 -1.122,-3 -0.663,-3.477 3.163,-3.81 v -1.334 h -11.07 v 1.334 c 3.214,0.428 3.928,0.714 5.713,4.906 L 0.459,5.764 2.041,6.193 C 5.204,-2 8.622,-11.05 11.887,-19.339 c 1.632,-4.096 2.296,-4.524 5.612,-4.81 v -1.334 z" /></g><g
           transform="translate(324.8252,360.6348)"
           id="g92"><path
             id="path94"
             style="fill:#231f20;fill-opacity:1;fill-rule:nonzero;stroke:none"
             d="m 0,0 c -0.561,2.287 -1.02,3.478 -1.632,4.239 -0.817,1.144 -1.684,1.477 -5.51,1.477 h -3.622 v -23.434 c 0,-3.764 0.408,-4.24 5.254,-4.526 v -1.334 h -14.641 v 1.334 c 4.642,0.286 5.05,0.762 5.05,4.526 V 5.716 h -3.163 c -4.234,0 -5.255,-0.381 -5.918,-1.477 C -24.793,3.43 -25.202,2.097 -25.814,0 h -1.479 c 0.254,2.858 0.51,5.954 0.612,8.575 h 1.02 c 0.714,-1.096 1.377,-1.191 2.806,-1.191 h 20.151 c 1.378,0 1.786,0.285 2.602,1.191 h 1.071 c 0,-2.192 0.256,-5.67 0.51,-8.431 z" /></g><g
           transform="translate(329.5151,337.0566)"
           id="g96"><path
             id="path98"
             style="fill:#231f20;fill-opacity:1;fill-rule:nonzero;stroke:none"
             d="m 0,0 v 1.334 c 4.183,0.286 4.591,0.571 4.591,4.62 v 19.054 c 0,4.049 -0.408,4.334 -4.591,4.62 v 1.334 H 13.519 V 29.628 C 9.336,29.342 8.928,29.057 8.928,25.008 V 5.954 c 0,-4.096 0.408,-4.334 4.591,-4.62 l 0,-1.334 z" /></g><g
           transform="translate(382.2881,366.6846)"
           id="g100"><path
             id="path102"
             style="fill:#231f20;fill-opacity:1;fill-rule:nonzero;stroke:none"
             d="M 0,0 C -2.857,-0.143 -4.082,-0.763 -4.286,-2.858 -4.49,-4.287 -4.591,-6.431 -4.591,-10.86 v -19.197 h -1.582 l -21.733,24.96 h -0.102 v -11.956 c 0,-4.382 0.153,-6.668 0.306,-8.049 0.255,-2.43 1.429,-3.002 4.898,-3.192 v -1.334 h -12.091 v 1.334 c 2.959,0.143 4.234,0.762 4.489,3.096 0.153,1.477 0.306,3.763 0.306,8.145 v 10.48 c 0,3.477 -0.102,3.668 -1.02,4.811 -1.02,1.191 -2.143,1.572 -4.541,1.762 v 1.334 h 7.551 l 21.274,-23.912 h 0.152 v 11.718 c 0,4.382 -0.203,6.573 -0.357,7.907 C -7.295,-0.81 -8.52,-0.19 -12.04,0 V 1.334 H 0 Z" /></g><g
           transform="translate(398.4038,362.54)"
           id="g104"><path
             id="path106"
             style="fill:#231f20;fill-opacity:1;fill-rule:nonzero;stroke:none"
             d="m 0,0 h -0.1 c -1.632,-4.096 -3.264,-8.24 -4.797,-12.146 h 9.386 z m 5.002,-25.483 v 1.334 c 3.216,0.38 3.673,0.761 3.011,2.619 -0.667,1.858 -1.687,4.431 -2.806,7.336 H -5.659 c -0.816,-2.143 -1.583,-4.144 -2.245,-6.145 -1.124,-3 -0.667,-3.477 3.161,-3.81 v -1.334 h -11.07 v 1.334 c 3.215,0.428 3.927,0.714 5.713,4.906 L 0.463,5.764 2.041,6.193 C 5.207,-2 8.625,-11.05 11.891,-19.339 c 1.632,-4.096 2.294,-4.524 5.609,-4.81 v -1.334 z" /></g><g
           transform="translate(469.7319,366.6846)"
           id="g108"><path
             id="path110"
             style="fill:#231f20;fill-opacity:1;fill-rule:nonzero;stroke:none"
             d="m 0,0 c -4.186,-0.333 -4.594,-0.571 -4.594,-4.525 v -19.243 c 0,-4.002 0.408,-4.24 4.539,-4.526 v -1.334 h -13.672 v 1.334 c 4.34,0.286 4.797,0.524 4.797,4.526 v 9.526 h -17.394 v -9.526 c 0,-3.955 0.408,-4.24 4.588,-4.526 v -1.334 h -13.418 v 1.334 c 4.082,0.286 4.49,0.524 4.49,4.526 v 19.243 c 0,4.001 -0.408,4.192 -4.59,4.525 v 1.334 h 13.215 V 0 c -3.877,-0.333 -4.285,-0.571 -4.285,-4.525 v -7.716 H -8.93 v 7.716 c 0,3.954 -0.408,4.192 -4.39,4.525 v 1.334 l 13.32,0 z" /></g><g
           transform="translate(479.0835,353.5376)"
           id="g112"><path
             id="path114"
             style="fill:#231f20;fill-opacity:1;fill-rule:nonzero;stroke:none"
             d="m 0,0 c 0,-8.955 5.256,-15.48 12.447,-15.48 5.666,0 10.768,4.429 10.768,13.575 0,10.05 -5.61,15.385 -12.295,15.385 C 5.207,13.48 0,8.908 0,0 m 28.42,-0.619 c 0,-10.288 -7.705,-16.576 -17.043,-16.576 -9.232,0 -16.578,6.716 -16.578,15.861 0,8.575 6.426,16.529 17.14,16.529 8.672,0 16.481,-6.287 16.481,-15.814" /></g><g
           transform="translate(538.2085,337.0566)"
           id="g116"><path
             id="path118"
             style="fill:#231f20;fill-opacity:1;fill-rule:nonzero;stroke:none"
             d="m 0,0 v 1.334 c 4.135,0.381 4.34,0.62 4.285,5.667 L 4.135,26.437 H 3.932 L -8.518,0.333 H -9.537 L -20.965,25.77 h -0.105 l -0.766,-13.576 c -0.205,-3.905 -0.205,-6.001 -0.148,-7.907 0.099,-2.286 1.324,-2.62 4.693,-2.953 V 0 h -11.891 v 1.334 c 2.961,0.333 3.983,0.857 4.34,2.858 0.254,1.668 0.557,3.763 0.965,8.716 l 0.717,9.909 c 0.459,6.191 0.205,6.382 -4.44,6.811 v 1.334 h 8.368 L -7.602,7.145 4.186,30.962 h 8.669 V 29.628 C 8.365,29.247 8.012,29.151 8.162,24.245 L 8.674,7.001 C 8.828,1.954 8.979,1.715 13.418,1.334 V 0 Z" /></g><g
           transform="translate(578.0347,344.5825)"
           id="g120"><path
             id="path122"
             style="fill:#231f20;fill-opacity:1;fill-rule:nonzero;stroke:none"
             d="m 0,0 c -0.293,-1.572 -1.273,-6.049 -1.713,-7.526 h -23.601 v 1.334 c 4.455,0.334 4.849,0.714 4.849,4.573 v 18.958 c 0,4.286 -0.394,4.43 -4.213,4.763 v 1.334 h 21.836 c 0,-1.191 0.244,-4.43 0.393,-6.86 l -1.418,-0.238 c -0.444,2.001 -0.932,3.049 -1.569,4.097 -0.685,1.001 -2.009,1.334 -5.533,1.334 h -3.724 c -1.512,0 -1.612,-0.096 -1.612,-1.524 V 9.432 h 4.604 c 4.404,0 4.648,0.381 5.285,3.572 h 1.42 V 3.858 h -1.42 c -0.637,3.43 -0.975,3.716 -5.234,3.716 h -4.655 v -9.003 c 0,-2.238 0.293,-3.238 1.174,-3.858 0.932,-0.571 2.649,-0.619 5.092,-0.619 3.723,0 5.092,0.381 6.172,1.619 0.832,0.954 1.762,2.572 2.398,4.478 z" /></g><g
           transform="translate(596.4155,360.7783)"
           id="g124"><path
             id="path126"
             style="fill:#231f20;fill-opacity:1;fill-rule:nonzero;stroke:none"
             d="m 0,0 c -0.92,3.048 -2.244,6.334 -6.684,6.334 -3.927,0 -5.664,-2.666 -5.664,-5.238 0,-3.478 2.448,-5.098 6.479,-7.05 3.982,-1.905 8.826,-4.145 8.826,-9.479 0,-5.003 -4.539,-9.003 -11.324,-9.003 -2.09,0 -3.723,0.381 -5.002,0.714 -1.274,0.43 -2.041,0.762 -2.498,1.001 -0.408,1 -1.07,5.096 -1.379,7.384 l 1.482,0.332 c 0.819,-2.906 3.112,-7.716 8.368,-7.716 3.822,0 6.121,2.239 6.121,5.716 0,3.524 -2.807,5.192 -6.633,7.098 -3.266,1.618 -8.418,4 -8.418,9.383 0,4.573 3.928,8.479 10.508,8.479 2.349,0 4.488,-0.524 6.431,-1.096 C 0.816,5.144 1.07,3.286 1.479,0.286 Z" /></g><g
           transform="translate(196.4155,98.8301)"
           id="g128"><path
             id="path130"
             style="fill:#231f20;fill-opacity:1;fill-rule:nonzero;stroke:none"
             d="M 0,0 V 19.018 H 11.438 V 16.772 H 2.245 v -5.887 h 7.956 V 8.64 H 2.245 V 0 Z" /></g><g
           transform="translate(234.3042,117.8477)"
           id="g132"><path
             id="path134"
             style="fill:#231f20;fill-opacity:1;fill-rule:nonzero;stroke:none"
             d="m 0,0 h 2.245 v -10.99 c 0,-1.908 -0.192,-3.424 -0.58,-4.548 -0.383,-1.126 -1.08,-2.039 -2.088,-2.746 -1.003,-0.706 -2.324,-1.055 -3.959,-1.055 -1.588,0 -2.887,0.306 -3.897,0.918 -1.009,0.612 -1.73,1.501 -2.16,2.665 -0.434,1.168 -0.65,2.753 -0.65,4.766 V 0 h 2.245 v -10.975 c 0,-1.65 0.136,-2.87 0.41,-3.648 0.274,-0.786 0.745,-1.389 1.409,-1.814 0.669,-0.423 1.483,-0.632 2.446,-0.632 1.65,0 2.827,0.418 3.527,1.254 0.704,0.838 1.052,2.454 1.052,4.84 z" /></g><g
           transform="translate(255.2432,109.4512)"
           id="g136"><path
             id="path138"
             style="fill:#231f20;fill-opacity:1;fill-rule:nonzero;stroke:none"
             d="m 0,0 h 4.823 c 1.025,0 1.829,0.122 2.404,0.36 0.58,0.237 1.021,0.619 1.321,1.138 0.299,0.527 0.451,1.092 0.451,1.71 0,0.898 -0.291,1.637 -0.874,2.217 -0.582,0.58 -1.5,0.869 -2.757,0.869 H 0 Z M -2.242,-10.621 V 8.396 H 5.276 C 6.787,8.396 7.934,8.228 8.72,7.882 9.506,7.54 10.136,6.94 10.606,6.072 11.077,5.208 11.311,4.253 11.311,3.208 11.311,1.856 10.922,0.722 10.144,-0.207 9.365,-1.132 8.16,-1.717 6.535,-1.969 7.13,-2.29 7.581,-2.605 7.889,-2.914 8.543,-3.591 9.163,-4.432 9.753,-5.445 l 2.946,-5.176 H 9.877 l -2.245,3.954 c -0.654,1.145 -1.194,2.018 -1.617,2.626 -0.426,0.602 -0.804,1.027 -1.14,1.271 -0.333,0.242 -0.677,0.406 -1.022,0.503 -0.254,0.059 -0.672,0.089 -1.25,0.089 H 0 v -8.443 z" /></g><g
           transform="translate(280.4004,98.8301)"
           id="g140"><path
             id="path142"
             style="fill:#231f20;fill-opacity:1;fill-rule:nonzero;stroke:none"
             d="M 0,0 V 19.018 H 2.299 L 11.204,4.086 v 14.932 h 2.152 L 13.356,0 H 11.054 L 2.15,14.943 V 0 Z" /></g><path
           id="path144"
           style="fill:#231f20;fill-opacity:1;fill-rule:nonzero;stroke:none"
           d="m 311.306,117.848 h 2.242 V 98.83 h -2.242 z" /><g
           transform="translate(332.979,98.8301)"
           id="g146"><path
             id="path148"
             style="fill:#231f20;fill-opacity:1;fill-rule:nonzero;stroke:none"
             d="m 0,0 v 16.772 h -5.587 v 2.246 H 7.849 V 16.772 H 2.242 V 0 Z" /></g><g
           transform="translate(366.9385,117.8477)"
           id="g150"><path
             id="path152"
             style="fill:#231f20;fill-opacity:1;fill-rule:nonzero;stroke:none"
             d="m 0,0 h 2.245 v -10.99 c 0,-1.908 -0.195,-3.424 -0.58,-4.548 -0.386,-1.126 -1.08,-2.039 -2.088,-2.746 -1.006,-0.706 -2.325,-1.055 -3.959,-1.055 -1.588,0 -2.887,0.306 -3.898,0.918 -1.01,0.612 -1.732,1.501 -2.159,2.665 -0.436,1.168 -0.653,2.753 -0.653,4.766 V 0 h 2.245 v -10.975 c 0,-1.65 0.137,-2.87 0.41,-3.648 0.274,-0.786 0.745,-1.389 1.412,-1.814 0.667,-0.423 1.483,-0.632 2.446,-0.632 1.647,0 2.827,0.418 3.526,1.254 0.702,0.838 1.053,2.454 1.053,4.84 z" /></g><g
           transform="translate(387.25,109.4512)"
           id="g154"><path
             id="path156"
             style="fill:#231f20;fill-opacity:1;fill-rule:nonzero;stroke:none"
             d="m 0,0 h 4.82 c 1.026,0 1.829,0.122 2.407,0.36 0.58,0.237 1.018,0.619 1.319,1.138 0.301,0.527 0.451,1.092 0.451,1.71 0,0.898 -0.292,1.637 -0.872,2.217 C 7.543,6.005 6.622,6.294 5.366,6.294 H 0 Z M -2.245,-10.621 V 8.396 h 7.518 c 1.511,0 2.661,-0.168 3.447,-0.514 0.789,-0.342 1.411,-0.942 1.884,-1.81 0.468,-0.864 0.707,-1.819 0.707,-2.864 0,-1.352 -0.389,-2.486 -1.17,-3.415 -0.779,-0.925 -1.978,-1.51 -3.603,-1.762 0.587,-0.321 1.04,-0.636 1.351,-0.945 0.652,-0.677 1.272,-1.518 1.859,-2.531 l 2.949,-5.176 H 9.873 l -2.24,3.954 C 6.976,-5.522 6.436,-4.649 6.015,-4.041 5.587,-3.439 5.208,-3.014 4.875,-2.77 4.539,-2.528 4.198,-2.364 3.85,-2.267 3.596,-2.208 3.181,-2.178 2.606,-2.178 H 0 v -8.443 z" /></g><g
           transform="translate(412.1162,98.8301)"
           id="g158"><path
             id="path160"
             style="fill:#231f20;fill-opacity:1;fill-rule:nonzero;stroke:none"
             d="M 0,0 V 19.018 H 11.303 V 16.772 H 2.067 v -5.825 h 8.648 V 8.718 H 2.067 V 2.242 h 9.6 V 0 Z" /></g><g
           transform="translate(579.6675,98.8301)"
           id="g162"><path
             id="path164"
             style="fill:#231f20;fill-opacity:1;fill-rule:nonzero;stroke:none"
             d="M 0,0 V 19.018 H 11.303 V 16.772 H 2.068 v -5.825 h 8.647 V 8.718 H 2.068 V 2.242 h 9.598 l 0,-2.242 z" /></g><g
           transform="translate(477.0093,106.2852)"
           id="g166"><path
             id="path168"
             style="fill:#231f20;fill-opacity:1;fill-rule:nonzero;stroke:none"
             d="M 0,0 V 2.235 L 7.184,2.25 7.254,-7.214 C 5.701,-7.453 5.184,-7.493 3.869,-7.572 2.6,-7.649 1.395,-7.776 0.16,-7.776 c -1.664,0 -3.178,0.398 -4.539,1.197 -1.359,0.798 -2.387,1.958 -3.078,3.469 -0.695,1.513 -1.037,3.208 -1.037,5.074 0,1.851 0.342,3.576 1.033,5.181 0.686,1.602 1.684,2.793 2.971,3.572 1.302,0.778 2.797,1.053 4.478,1.169 1.315,0.092 5.914,0.008 5.914,0.008 L 5.816,9.825 C 5.816,9.825 0.859,9.733 0,9.733 -1.025,9.733 -1.908,9.562 -2.658,9.208 -3.406,8.857 -4.014,8.396 -4.471,7.824 -4.924,7.252 -5.281,6.628 -5.541,5.946 -5.973,4.764 -6.182,3.492 -6.182,2.118 c 0,-1.694 0.258,-3.113 0.78,-4.256 0.513,-1.141 1.279,-1.985 2.269,-2.545 0.994,-0.552 2.053,-0.824 3.17,-0.824 0.973,0 1.881,0.045 2.877,0.204 0.994,0.159 1.313,0.159 2.07,0.399 V 0 Z" /></g><g
           transform="translate(503.4019,106.6416)"
           id="g170"><path
             id="path172"
             style="fill:#231f20;fill-opacity:1;fill-rule:nonzero;stroke:none"
             d="M 0,0 H 5.746 L 3.977,5.263 C 3.441,6.863 3.037,8.18 2.775,9.21 2.559,7.988 2.254,6.779 1.861,5.577 Z m -4.893,-7.812 6.51,19.018 h 2.42 L 10.975,-7.812 H 8.42 l -1.979,5.758 h -7.089 l -1.864,-5.758 z" /></g><g
           transform="translate(529.0894,98.8301)"
           id="g174"><path
             id="path176"
             style="fill:#231f20;fill-opacity:1;fill-rule:nonzero;stroke:none"
             d="M 0,0 V 19.018 H 2.244 V 2.242 h 8.348 V 0 Z" /></g><g
           transform="translate(553.9956,98.8301)"
           id="g178"><path
             id="path180"
             style="fill:#231f20;fill-opacity:1;fill-rule:nonzero;stroke:none"
             d="M 0,0 V 19.018 H 2.244 V 2.242 H 10.59 V 0 Z" /></g><g
           transform="translate(608.6128,109.4512)"
           id="g182"><path
             id="path184"
             style="fill:#231f20;fill-opacity:1;fill-rule:nonzero;stroke:none"
             d="M 0,0 H 4.82 C 5.848,0 6.646,0.122 7.23,0.36 7.807,0.597 8.248,0.979 8.545,1.498 8.844,2.025 8.996,2.59 8.996,3.208 8.996,4.106 8.707,4.845 8.121,5.425 7.537,6.005 6.619,6.294 5.367,6.294 H 0 Z M -2.24,-10.621 V 8.396 h 7.513 c 1.512,0 2.661,-0.168 3.444,-0.514 0.789,-0.342 1.416,-0.942 1.887,-1.81 0.468,-0.864 0.701,-1.819 0.701,-2.864 0,-1.352 -0.385,-2.486 -1.16,-3.415 C 9.359,-1.132 8.158,-1.717 6.529,-1.969 7.121,-2.29 7.578,-2.605 7.885,-2.914 8.541,-3.591 9.162,-4.432 9.742,-5.445 l 2.951,-5.176 H 9.877 L 7.633,-6.667 C 6.977,-5.522 6.436,-4.649 6.01,-4.041 5.592,-3.439 5.213,-3.014 4.869,-2.77 4.535,-2.528 4.199,-2.364 3.85,-2.267 3.598,-2.208 3.182,-2.178 2.6,-2.178 H 0 v -8.443 z" /></g><g
           transform="translate(636.4663,98.8301)"
           id="g186"><path
             id="path188"
             style="fill:#231f20;fill-opacity:1;fill-rule:nonzero;stroke:none"
             d="m 0,0 v 8.058 l -6.531,10.96 h 2.726 l 3.346,-5.737 C 0.15,12.209 0.73,11.136 1.26,10.066 c 0.51,0.996 1.127,2.113 1.851,3.357 l 3.284,5.595 H 9.006 L 2.248,8.058 V 0 Z" /></g></g></g></g></svg>